<?xml version="1.0" encoding="UTF-8"?>
<svg xmlns="http://www.w3.org/2000/svg" xmlns:xlink="http://www.w3.org/1999/xlink" width="250" height="300">
<path d="M2,2 V175 a123 123 0 0 0 246 0 V2 Z" fill="#0182cc"/>
<g id="s">
<g fill="#aaa"><polygon id="s1" points="64,28 71.2,47.53 91.713,44 78.4,60 91.713,76 71.2,72.47 64,92 56.8,72.47 36.287,76 49.6,60 36.287,44 56.8,47.53"/></g>
<g fill="#eee">
<polygon points="64,60 71.2,47.53 91.713,44"/>
<polygon points="64,60 78.4,60 91.713,76"/>
<polygon points="64,60 64,92 56.8,72.47"/>
<polygon points="64,60 36.287,76 49.6,60"/>
<polygon points="64,60 36.287,44 56.8,47.53,64,28"/>
</g>
<polygon id="s2" points="64,28 65,60,64,92 63,60" fill="#fff"/>
<use xlink:href="#s2" transform="rotate(60 64 60)"/>
<use xlink:href="#s2" transform="rotate(-60 64 60)"/>
<use xlink:href="#s1" fill="none" stroke="#444" stroke-width="2"/></g>
<use xlink:href="#s" x="122"/>
<g fill="#fbca25"><polygon id="c1" points="105,110 145,110 135,155 180,145 180,185 135,175 145,220 105,220 115,175 70,185 70,145 115,155"/></g>
<g fill="#ffeb99"><g id="c2">
<polygon points="70,185 70,145 115,155 105,110 145,110 140.014,114 109.986,114 120.268,160.268 74,149.986 74,180.014"/>
<polygon points="135,155 180,145 176,149.986 129.732,160.268"/>
<polygon points="105,220 115,175 120.268,169.732 109.986,216"/></g></g>
<use xlink:href="#c2" transform="rotate(180 125 165)" fill="#c47c08"/>
<use xlink:href="#c1" fill="none" stroke="#6d4306" stroke-width="2"/>
<g fill="#aaa"><path id="s3" d="M31.615,157.5 a95 95 0 1 0 186.77 0 a95 95 0 0 1 -186.77 0 Z"/></g>
<path d="M31.615,157.5 a90 90 0 1 0 186.77 0 a95 95 0 0 1 -186.77 0 Z" fill="#eee"/>
<path d="M31.615,157.5 a93.39 93.39 0 1 0 186.77 0 a93.39 93.39 0 0 1 -186.77 0 Z" fill="#fff"/>
<use xlink:href="#s3" fill="none" stroke="#444" stroke-width="2"/>
<path d="M0,0 V175 a125 125 0 0 0 250 0 V0 Z M245,5 V175 a120 120 0 0 1 -240 0 V5 Z" fill-rule="nonzero"/>
</svg>